<mxfile host="app.diagrams.net" modified="2020-11-23T11:19:27.925Z" agent="5.0 (Macintosh; Intel Mac OS X 11_0_0) AppleWebKit/537.36 (KHTML, like Gecko) Chrome/86.0.4240.198 Safari/537.36" etag="5O0NSg3jmOWXd9UCFH2r" version="13.9.1" type="github">
  <diagram name="Page-1" id="2a216829-ef6e-dabb-86c1-c78162f3ba2b">
    <mxGraphModel dx="1854" dy="1084" grid="1" gridSize="10" guides="1" tooltips="1" connect="1" arrows="1" fold="1" page="1" pageScale="1" pageWidth="850" pageHeight="1100" background="#ffffff" math="0" shadow="0">
      <root>
        <mxCell id="0" />
        <mxCell id="1" parent="0" />
        <mxCell id="_RQwKKAXz66SFlrscg8q-1" value="Hospital" style="swimlane;html=1;childLayout=stackLayout;resizeParent=1;resizeParentMax=0;horizontal=0;startSize=20;horizontalStack=0;" vertex="1" parent="1">
          <mxGeometry x="140" y="510" width="1190" height="450" as="geometry" />
        </mxCell>
        <mxCell id="_RQwKKAXz66SFlrscg8q-3" value="Transport dept." style="swimlane;html=1;startSize=20;horizontal=0;" vertex="1" parent="_RQwKKAXz66SFlrscg8q-1">
          <mxGeometry x="20" width="1170" height="120" as="geometry" />
        </mxCell>
        <mxCell id="_RQwKKAXz66SFlrscg8q-4" value="Emergency ward" style="swimlane;html=1;startSize=20;horizontal=0;" vertex="1" parent="_RQwKKAXz66SFlrscg8q-1">
          <mxGeometry x="20" y="120" width="1170" height="330" as="geometry" />
        </mxCell>
        <mxCell id="_RQwKKAXz66SFlrscg8q-2" value="Doctor" style="swimlane;html=1;startSize=20;horizontal=0;" vertex="1" parent="_RQwKKAXz66SFlrscg8q-4">
          <mxGeometry x="20" y="180" width="1150" height="150" as="geometry" />
        </mxCell>
        <mxCell id="_RQwKKAXz66SFlrscg8q-5" value="Nurse" style="swimlane;html=1;startSize=20;horizontal=0;" vertex="1" parent="_RQwKKAXz66SFlrscg8q-4">
          <mxGeometry x="20" width="1150" height="180" as="geometry" />
        </mxCell>
        <mxCell id="_RQwKKAXz66SFlrscg8q-6" value="Ambulance" style="swimlane;startSize=20;horizontal=0;" vertex="1" parent="1">
          <mxGeometry x="350" y="1010" width="320" height="120" as="geometry" />
        </mxCell>
        <mxCell id="_RQwKKAXz66SFlrscg8q-7" value="Specialist" style="swimlane;startSize=20;horizontal=0;" vertex="1" parent="1">
          <mxGeometry x="750" y="1010" width="320" height="120" as="geometry" />
        </mxCell>
      </root>
    </mxGraphModel>
  </diagram>
</mxfile>
